<?xml version="1.0" encoding="UTF-8" standalone="no"?>
<svg
   width="135.9866"
   height="57.742088"
   viewBox="0 0 135.9866 57.742089"
   fill="none"
   version="1.1"
   id="svg68"
   sodipodi:docname="Logo-website.svg"
   inkscape:export-filename="/srv/http/new-web-site/themes/invk/assets/images/logo/invk-logo-vertical-dark-green-rgb.png"
   inkscape:export-xdpi="23.773998"
   inkscape:export-ydpi="23.773998"
   inkscape:version="1.1 (c4e8f9ed74, 2021-05-24)"
   xmlns:inkscape="http://www.inkscape.org/namespaces/inkscape"
   xmlns:sodipodi="http://sodipodi.sourceforge.net/DTD/sodipodi-0.dtd"
   xmlns="http://www.w3.org/2000/svg"
   xmlns:svg="http://www.w3.org/2000/svg">
  <defs
     id="defs72" />
  <sodipodi:namedview
     id="namedview70"
     pagecolor="#ffffff"
     bordercolor="#666666"
     borderopacity="1.0"
     inkscape:pageshadow="2"
     inkscape:pageopacity="0.0"
     inkscape:pagecheckerboard="0"
     showgrid="false"
     inkscape:zoom="0.7239229"
     inkscape:cx="314.95067"
     inkscape:cy="250.71731"
     inkscape:window-width="1920"
     inkscape:window-height="1175"
     inkscape:window-x="0"
     inkscape:window-y="25"
     inkscape:window-maximized="1"
     inkscape:current-layer="svg68"
     fit-margin-top="0"
     fit-margin-left="0"
     fit-margin-right="0"
     fit-margin-bottom="0" />
  <path
     d="M 0.40196284,57.653851 V 51.204799 H 1.5312205 v 6.449052 z"
     fill="#243f52"
     id="path2"
     style="stroke-width:0.168383" />
  <path
     d="m 5.9946043,57.653851 v -2.929014 c 0,-0.355793 -0.042634,-0.624868 -0.1279202,-0.807226 -0.085286,-0.182358 -0.2234942,-0.273453 -0.4146421,-0.273453 -0.2529106,0 -0.4381819,0.126455 -0.5558139,0.379365 C 4.778596,54.273403 4.71978,54.696885 4.71978,55.29397 v 2.359881 H 3.5464061 v -4.914076 h 0.9307683 l 0.1411551,0.630929 h 0.074981 c 0.105879,-0.226474 0.2573223,-0.402939 0.4543467,-0.529394 0.1970413,-0.129318 0.4278937,-0.194146 0.6925575,-0.194146 0.4470051,0 0.7808067,0.15306 1.0013542,0.458843 0.223511,0.305783 0.3352328,0.752838 0.3352328,1.340999 v 3.206845 z"
     fill="#243f52"
     id="path4"
     style="stroke-width:0.168383" />
  <path
     d="m 11.485879,56.215864 c 0,0.479386 -0.141272,0.854373 -0.423482,1.124796 -0.279346,0.267728 -0.692591,0.401424 -1.2395815,0.401424 -0.485228,0 -0.8866521,-0.09547 -1.2042552,-0.286756 v -1.018882 c 0.1617314,0.111806 0.3499494,0.204416 0.5646204,0.277831 0.2176176,0.07358 0.4087655,0.11029 0.5734604,0.11029 0.1823247,0 0.3205329,-0.04412 0.4146419,-0.132348 0.09706,-0.0911 0.145567,-0.210142 0.145567,-0.357308 0,-0.149861 -0.04999,-0.280862 -0.149978,-0.3925 C 10.066886,55.830605 9.8830964,55.693878 9.615486,55.532063 9.2596432,55.320406 9.0038027,55.095447 8.847931,54.857186 8.6950228,54.616062 8.6185603,54.332337 8.6185603,54.005843 c 0,-0.417588 0.14262,-0.74846 0.4278769,-0.992447 0.2882036,-0.244154 0.6822693,-0.366232 1.1821968,-0.366232 0.435202,0 0.84555,0.114669 1.230809,0.344174 l -0.383912,0.842418 c -0.314538,-0.170571 -0.591056,-0.255773 -0.82925,-0.255773 -0.149979,0 -0.263199,0.03974 -0.3396615,0.119047 -0.073516,0.07948 -0.1102738,0.176465 -0.1102738,0.291133 0,0.132349 0.045581,0.250048 0.1367435,0.35293 0.094092,0.102882 0.2676268,0.230852 0.5205378,0.383744 0.30585,0.185389 0.520538,0.342658 0.643962,0.471976 0.123593,0.129486 0.219234,0.276484 0.286756,0.441162 0.06769,0.164679 0.101534,0.357308 0.101534,0.577889 z"
     fill="#243f52"
     id="path6"
     style="stroke-width:0.168383" />
  <path
     d="m 14.656691,56.749637 c 0.164679,0 0.342659,-0.04125 0.533773,-0.123593 v 0.917517 c -0.191114,0.132349 -0.47787,0.198523 -0.860098,0.198523 -0.426513,0 -0.742567,-0.126455 -0.948499,-0.379366 -0.205763,-0.255773 -0.308645,-0.63817 -0.308645,-1.146854 v -2.54527 h -0.476523 v -0.524849 l 0.61325,-0.423482 0.299889,-1.041109 h 0.749976 v 1.058621 h 0.89108 v 0.930819 h -0.89108 v 2.585009 c 0,0.329356 0.132348,0.494034 0.396877,0.494034 z"
     fill="#243f52"
     id="path8"
     style="stroke-width:0.168383" />
  <path
     d="m 17.783556,57.653851 h -1.17329 v -4.914076 h 1.17329 z m -1.221953,-6.197656 c 0,-0.194146 0.0559,-0.347037 0.167709,-0.458675 0.114669,-0.114836 0.273454,-0.172086 0.476355,-0.172086 0.191282,0 0.344174,0.05725 0.458842,0.172086 0.114669,0.111638 0.172087,0.264529 0.172087,0.458675 0,0.200038 -0.05893,0.355792 -0.176465,0.467598 -0.117699,0.108775 -0.269075,0.163163 -0.454464,0.163163 -0.193977,0 -0.349899,-0.05439 -0.467599,-0.163163 -0.117531,-0.111806 -0.176465,-0.26756 -0.176465,-0.467598 z"
     fill="#243f52"
     id="path10"
     style="stroke-width:0.168383" />
  <path
     d="m 21.219233,56.749637 c 0.164678,0 0.34249,-0.04125 0.533773,-0.123593 v 0.917517 c -0.191283,0.132349 -0.47787,0.198523 -0.860266,0.198523 -0.426345,0 -0.742568,-0.126455 -0.948331,-0.379366 -0.205932,-0.255773 -0.308814,-0.63817 -0.308814,-1.146854 v -2.54527 h -0.476354 v -0.524849 l 0.613081,-0.423482 0.299889,-1.041109 h 0.749976 v 1.058621 h 0.891081 v 0.930819 h -0.891081 v 2.585009 c 0,0.329356 0.132349,0.494034 0.397046,0.494034 z"
     fill="#243f52"
     id="path12"
     style="stroke-width:0.168383" />
  <path
     d="M 25.819276,57.653851 25.673794,57.02309 h -0.0618 c -0.108776,0.223444 -0.264698,0.399909 -0.467599,0.529395 -0.19987,0.126455 -0.429375,0.189599 -0.688179,0.189599 -0.440994,0 -0.774897,-0.149861 -1.001203,-0.449918 -0.226475,-0.29989 -0.339796,-0.748461 -0.339796,-1.345377 v -3.207014 h 1.186592 v 2.924637 c 0,0.358823 0.04277,0.629414 0.127971,0.811772 0.08537,0.18219 0.223443,0.273453 0.414726,0.273453 0.25291,0 0.436616,-0.126455 0.551284,-0.379366 0.1177,-0.25291 0.176465,-0.677908 0.176465,-1.274824 v -2.355672 h 1.186592 v 4.914076 z"
     fill="#243f52"
     id="path14"
     style="stroke-width:0.168383" />
  <path
     d="M 31.120801,57.653851 30.975319,57.02309 h -0.0618 c -0.108775,0.223444 -0.264697,0.399909 -0.467598,0.529395 -0.19987,0.126455 -0.429376,0.189599 -0.688179,0.189599 -0.440994,0 -0.774897,-0.149861 -1.001203,-0.449918 -0.226475,-0.29989 -0.339796,-0.748461 -0.339796,-1.345377 v -3.207014 h 1.186592 v 2.924637 c 0,0.358823 0.04277,0.629414 0.12797,0.811772 0.08537,0.18219 0.223444,0.273453 0.414727,0.273453 0.25291,0 0.436616,-0.126455 0.551284,-0.379366 0.1177,-0.25291 0.176465,-0.677908 0.176465,-1.274824 v -2.355672 h 1.186592 v 4.914076 z"
     fill="#243f52"
     id="path16"
     style="stroke-width:0.168383" />
  <path
     d="m 35.473996,56.749637 c 0.164678,0 0.342658,-0.04125 0.533772,-0.123593 v 0.917517 c -0.191114,0.132349 -0.477869,0.198523 -0.860266,0.198523 -0.426345,0 -0.742567,-0.126455 -0.948331,-0.379366 -0.205932,-0.255773 -0.308813,-0.63817 -0.308813,-1.146854 v -2.54527 h -0.476355 v -0.524849 l 0.613081,-0.423482 0.300058,-1.041109 h 0.749808 v 1.058621 h 0.89108 v 0.930819 h -0.89108 v 2.585009 c 0,0.329356 0.132348,0.494034 0.397046,0.494034 z"
     fill="#243f52"
     id="path18"
     style="stroke-width:0.168383" />
  <path
     d="m 41.158591,57.653851 -1.283749,-4.914076 h 1.217574 l 0.626384,2.845328 c 0.02644,0.132349 0.05742,0.326326 0.09261,0.582267 0.03822,0.252911 0.0618,0.435269 0.07055,0.546907 h 0.01768 c 0.0029,-0.08823 0.01465,-0.214688 0.03536,-0.379366 0.0234,-0.164678 0.04698,-0.316054 0.07055,-0.454296 0.0234,-0.138242 0.24988,-1.185077 0.679255,-3.14084 h 1.217575 l -1.288127,4.914076 z"
     fill="#243f52"
     id="path20"
     style="stroke-width:0.168383" />
  <path
     d="m 48.767125,55.188057 c 0,0.805711 -0.170571,1.433609 -0.511714,1.883528 -0.341144,0.447055 -0.808742,0.670499 -1.402796,0.670499 -0.376335,0 -0.708722,-0.102882 -0.996824,-0.308814 -0.288271,-0.205763 -0.510199,-0.501275 -0.666122,-0.886534 -0.155922,-0.38829 -0.233715,-0.841071 -0.233715,-1.358679 0,-0.796954 0.169056,-1.41896 0.507169,-1.865847 0.33828,-0.450086 0.807226,-0.675046 1.407173,-0.675046 0.579404,0 1.039594,0.229506 1.380737,0.68818 0.344005,0.455812 0.516092,1.073439 0.516092,1.852713 z m -2.611445,0 c 0,0.511715 0.0559,0.89849 0.167709,1.160156 0.111638,0.261667 0.291133,0.3925 0.538151,0.3925 0.470461,0 0.705691,-0.51744 0.705691,-1.552656 0,-0.514577 -0.05725,-0.898489 -0.171919,-1.1514 -0.111806,-0.255773 -0.289786,-0.383744 -0.533772,-0.383744 -0.247018,0 -0.426513,0.127971 -0.538151,0.383744 -0.111806,0.252911 -0.167709,0.636823 -0.167709,1.1514 z"
     fill="#243f52"
     id="path22"
     style="stroke-width:0.168383" />
  <path
     d="m 53.953981,55.188057 c 0,0.805711 -0.170571,1.433609 -0.511714,1.883528 -0.341143,0.447055 -0.808742,0.670499 -1.402795,0.670499 -0.376335,0 -0.708722,-0.102882 -0.996825,-0.308814 -0.288271,-0.205763 -0.510199,-0.501275 -0.666121,-0.886534 -0.155923,-0.38829 -0.233884,-0.841071 -0.233884,-1.358679 0,-0.796954 0.169225,-1.41896 0.507337,-1.865847 0.33828,-0.450086 0.807226,-0.675046 1.407173,-0.675046 0.579404,0 1.039594,0.229506 1.380737,0.68818 0.344005,0.455812 0.516092,1.073439 0.516092,1.852713 z m -2.611445,0 c 0,0.511715 0.0559,0.89849 0.167709,1.160156 0.111638,0.261667 0.291134,0.3925 0.538151,0.3925 0.470461,0 0.705691,-0.51744 0.705691,-1.552656 0,-0.514577 -0.05725,-0.898489 -0.171918,-1.1514 -0.111806,-0.255773 -0.289787,-0.383744 -0.533773,-0.383744 -0.247017,0 -0.426513,0.127971 -0.538151,0.383744 -0.111806,0.252911 -0.167709,0.636823 -0.167709,1.1514 z"
     fill="#243f52"
     id="path24"
     style="stroke-width:0.168383" />
  <path
     d="m 57.596938,52.647164 c 0.144136,0 0.28524,0.02206 0.423482,0.06618 l -0.136726,1.138097 c -0.08234,-0.0293 -0.189768,-0.04412 -0.322116,-0.04412 -0.28524,0 -0.504306,0.113322 -0.657197,0.339628 -0.152892,0.223612 -0.229337,0.549937 -0.229337,0.979313 v 2.52759 h -1.173458 v -4.914076 h 0.96601 l 0.132349,0.767656 h 0.03974 c 0.129318,-0.308814 0.270591,-0.529395 0.423482,-0.661744 0.152892,-0.132348 0.330872,-0.198523 0.533773,-0.198523 z"
     fill="#243f52"
     id="path26"
     style="stroke-width:0.168383" />
  <path
     d="m 66.311914,57.653851 h -1.279202 l -1.058621,-2.756927 -0.480901,0.480732 v 2.276195 h -1.199726 v -6.449052 h 1.199726 v 3.19809 l 0.419104,-0.96601 1.09836,-2.23208 h 1.283748 l -1.491027,2.792288 z"
     fill="#243f52"
     id="path28"
     style="stroke-width:0.168383" />
  <path
     d="m 69.346168,57.742084 c -0.614596,0 -1.099875,-0.21755 -1.455667,-0.652819 -0.35293,-0.438132 -0.529395,-1.057274 -0.529395,-1.857092 0,-0.811603 0.1603,-1.445395 0.480901,-1.901207 0.320432,-0.455812 0.767487,-0.683802 1.340998,-0.683802 0.53512,0 0.957087,0.195661 1.2659,0.586814 0.308814,0.388121 0.463221,0.933681 0.463221,1.63651 v 0.626383 h -2.36005 c 0.0089,0.438131 0.0985,0.764625 0.269075,0.979313 0.170572,0.211657 0.40597,0.317569 0.70586,0.317569 0.382228,0 0.773381,-0.119046 1.173289,-0.357307 v 0.96601 c -0.376335,0.226475 -0.827768,0.339628 -1.354132,0.339628 z m -0.172087,-4.190537 c -0.167541,0 -0.305783,0.08958 -0.414558,0.269075 -0.108943,0.176465 -0.172087,0.451434 -0.189767,0.824907 h 1.19097 c -0.0057,-0.358824 -0.06028,-0.630761 -0.163163,-0.816151 -0.102882,-0.18522 -0.243986,-0.277831 -0.423482,-0.277831 z"
     fill="#243f52"
     id="path30"
     style="stroke-width:0.168383" />
  <path
     d="m 74.85935,57.653851 v -2.929014 c 0,-0.355793 -0.0426,-0.624868 -0.127803,-0.807226 -0.08537,-0.182358 -0.223612,-0.273453 -0.414726,-0.273453 -0.252911,0 -0.438131,0.126455 -0.555831,0.379365 -0.117531,0.24988 -0.176465,0.673362 -0.176465,1.270447 v 2.359881 h -1.173289 v -4.914076 h 0.930818 l 0.141105,0.630929 h 0.07493 c 0.105913,-0.226474 0.257289,-0.402939 0.454465,-0.529394 0.197007,-0.129318 0.42786,-0.194146 0.692557,-0.194146 0.446888,0 0.780622,0.15306 1.001203,0.458843 0.223612,0.305783 0.33525,0.752838 0.33525,1.340999 v 3.206845 z"
     fill="#243f52"
     id="path32"
     style="stroke-width:0.168383" />
  <path
     d="m 80.160875,57.653851 v -2.929014 c 0,-0.355793 -0.0426,-0.624868 -0.127803,-0.807226 -0.08537,-0.182358 -0.223612,-0.273453 -0.414726,-0.273453 -0.252911,0 -0.438131,0.126455 -0.555831,0.379365 -0.117531,0.24988 -0.176465,0.673362 -0.176465,1.270447 v 2.359881 h -1.173289 v -4.914076 h 0.930818 l 0.141105,0.630929 h 0.07493 c 0.105913,-0.226474 0.257289,-0.402939 0.454465,-0.529394 0.197007,-0.129318 0.42786,-0.194146 0.692389,-0.194146 0.447055,0 0.78079,0.15306 1.001371,0.458843 0.223612,0.305783 0.33525,0.752838 0.33525,1.340999 v 3.206845 z"
     fill="#243f52"
     id="path34"
     style="stroke-width:0.168383" />
  <path
     d="m 84.196499,57.653851 h -1.173458 v -4.914076 h 1.173458 z m -1.221952,-6.197656 c 0,-0.194146 0.0559,-0.347037 0.167709,-0.458675 0.114669,-0.114836 0.273453,-0.172086 0.476354,-0.172086 0.191115,0 0.344006,0.05725 0.458675,0.172086 0.114836,0.111638 0.172086,0.264529 0.172086,0.458675 0,0.200038 -0.05876,0.355792 -0.176464,0.467598 -0.117531,0.108775 -0.269076,0.163163 -0.454297,0.163163 -0.194145,0 -0.349899,-0.05439 -0.467598,-0.163163 -0.117699,-0.111806 -0.176465,-0.26756 -0.176465,-0.467598 z"
     fill="#243f52"
     id="path36"
     style="stroke-width:0.168383" />
  <path
     d="m 88.562828,56.215864 c 0,0.479386 -0.141105,0.854373 -0.423483,1.124796 -0.279346,0.267728 -0.692557,0.401424 -1.239464,0.401424 -0.485278,0 -0.886702,-0.09547 -1.204272,-0.286756 v -1.018882 c 0.161648,0.111806 0.349899,0.204416 0.564587,0.277831 0.21755,0.07358 0.408833,0.11029 0.573511,0.11029 0.18219,0 0.320432,-0.04412 0.414558,-0.132348 0.09699,-0.0911 0.145651,-0.210142 0.145651,-0.357308 0,-0.149861 -0.05001,-0.280862 -0.150029,-0.3925 -0.100019,-0.111806 -0.283725,-0.248533 -0.551453,-0.410348 -0.355792,-0.211657 -0.611565,-0.436616 -0.767488,-0.674877 -0.152891,-0.241124 -0.229337,-0.524849 -0.229337,-0.851343 0,-0.417588 0.14262,-0.74846 0.42786,-0.992447 0.288103,-0.244154 0.682286,-0.366232 1.182214,-0.366232 0.435269,0 0.845449,0.114669 1.230708,0.344174 l -0.383743,0.842418 c -0.314707,-0.170571 -0.591192,-0.255773 -0.829453,-0.255773 -0.14986,0 -0.263182,0.03974 -0.339628,0.119047 -0.07341,0.07948 -0.11029,0.176465 -0.11029,0.291133 0,0.132349 0.04563,0.250048 0.136727,0.35293 0.09413,0.102882 0.267728,0.230852 0.520638,0.383744 0.305783,0.185389 0.520471,0.342658 0.644064,0.471976 0.123424,0.129486 0.219065,0.276484 0.286587,0.441162 0.06769,0.164679 0.101535,0.357308 0.101535,0.577889 z"
     fill="#243f52"
     id="path38"
     style="stroke-width:0.168383" />
  <path
     d="m 93.665829,55.188057 c 0,0.805711 -0.170571,1.433609 -0.511714,1.883528 -0.341143,0.447055 -0.808742,0.670499 -1.402795,0.670499 -0.376335,0 -0.708723,-0.102882 -0.996825,-0.308814 -0.288271,-0.205763 -0.510199,-0.501275 -0.666122,-0.886534 -0.155922,-0.38829 -0.233715,-0.841071 -0.233715,-1.358679 0,-0.796954 0.169057,-1.41896 0.507169,-1.865847 0.33828,-0.450086 0.807226,-0.675046 1.407173,-0.675046 0.579404,0 1.039594,0.229506 1.380737,0.68818 0.344005,0.455812 0.516092,1.073439 0.516092,1.852713 z m -2.611445,0 c 0,0.511715 0.0559,0.89849 0.167709,1.160156 0.111638,0.261667 0.291134,0.3925 0.538151,0.3925 0.470461,0 0.705691,-0.51744 0.705691,-1.552656 0,-0.514577 -0.05725,-0.898489 -0.171918,-1.1514 -0.111806,-0.255773 -0.289787,-0.383744 -0.533773,-0.383744 -0.247017,0 -0.426513,0.127971 -0.538151,0.383744 -0.111806,0.252911 -0.167709,0.636823 -0.167709,1.1514 z"
     fill="#243f52"
     id="path40"
     style="stroke-width:0.168383" />
  <path
     d="m 95.998601,57.653851 -1.28358,-4.914076 h 1.217406 l 0.626383,2.845328 c 0.02661,0.132349 0.05742,0.326326 0.09278,0.582267 0.03822,0.252911 0.06163,0.435269 0.07055,0.546907 h 0.01751 c 0.003,-0.08823 0.01482,-0.214688 0.03536,-0.379366 0.02357,-0.164678 0.04698,-0.316054 0.07055,-0.454296 0.02357,-0.138242 0.250048,-1.185077 0.679423,-3.14084 h 1.217406 l -1.288126,4.914076 z"
     fill="#243f52"
     id="path42"
     style="stroke-width:0.168383" />
  <path
     d="m 101.78103,57.742084 c -0.6146,0 -1.09988,-0.21755 -1.45567,-0.652819 -0.35293,-0.438132 -0.529395,-1.057274 -0.529395,-1.857092 0,-0.811603 0.1603,-1.445395 0.480905,-1.901207 0.32043,-0.455812 0.76748,-0.683802 1.34099,-0.683802 0.53512,0 0.95709,0.195661 1.2659,0.586814 0.30882,0.388121 0.46322,0.933681 0.46322,1.63651 v 0.626383 h -2.36005 c 0.009,0.438131 0.0985,0.764625 0.26908,0.979313 0.17057,0.211657 0.4058,0.317569 0.70586,0.317569 0.38223,0 0.77338,-0.119046 1.17329,-0.357307 v 0.96601 c -0.37634,0.226475 -0.82777,0.339628 -1.35413,0.339628 z m -0.17209,-4.190537 c -0.16754,0 -0.30578,0.08958 -0.41456,0.269075 -0.10894,0.176465 -0.17209,0.451434 -0.18977,0.824907 h 1.19097 c -0.006,-0.358824 -0.0603,-0.630761 -0.16316,-0.816151 -0.10288,-0.18522 -0.24415,-0.277831 -0.42348,-0.277831 z"
     fill="#243f52"
     id="path44"
     style="stroke-width:0.168383" />
  <path
     d="m 106.94145,52.647164 c 0.14396,0 0.28524,0.02206 0.42331,0.06618 l -0.13673,1.138097 c -0.0823,-0.0293 -0.18959,-0.04412 -0.32194,-0.04412 -0.28524,0 -0.50431,0.113322 -0.6572,0.339628 -0.15306,0.223612 -0.22951,0.549937 -0.22951,0.979313 v 2.52759 h -1.17329 v -4.914076 h 0.96602 l 0.13234,0.767656 h 0.0397 c 0.12932,-0.308814 0.27042,-0.529395 0.42348,-0.661744 0.1529,-0.132348 0.33071,-0.198523 0.53378,-0.198523 z"
     fill="#243f52"
     id="path46"
     style="stroke-width:0.168383" />
  <path
     d="m 109.90498,57.742084 c -0.45295,0 -0.81026,-0.223444 -1.07192,-0.670499 -0.26167,-0.446888 -0.39267,-1.068893 -0.39267,-1.865848 0,-0.799985 0.12797,-1.426368 0.38391,-1.879149 0.25577,-0.452949 0.6087,-0.679424 1.05862,-0.679424 0.22345,0 0.41608,0.0559 0.57789,0.167709 0.16468,0.108776 0.31605,0.293996 0.4543,0.555831 h 0.0705 c -0.0352,-0.447055 -0.0529,-0.760247 -0.0529,-0.939574 v -1.641057 h 1.17329 v 6.863778 h -0.8734 l -0.19853,-0.639517 h -0.0396 c -0.25004,0.485111 -0.61325,0.72775 -1.0896,0.72775 z m 0.37937,-0.992447 c 0.21755,0 0.37633,-0.0985 0.47635,-0.295511 0.10002,-0.200039 0.15441,-0.561725 0.16333,-1.085226 v -0.154407 c 0,-0.57048 -0.0515,-0.971904 -0.15441,-1.204272 -0.10001,-0.232199 -0.26621,-0.348383 -0.49858,-0.348383 -0.21755,0 -0.37633,0.133695 -0.47635,0.401424 -0.097,0.264697 -0.14565,0.651303 -0.14565,1.160156 0,0.508683 0.05,0.890912 0.15003,1.146853 0.10002,0.252911 0.26183,0.379366 0.48528,0.379366 z"
     fill="#243f52"
     id="path48"
     style="stroke-width:0.168383" />
  <path
     d="m 115.91236,52.647164 c 0.14397,0 0.28524,0.02206 0.42332,0.06618 l -0.13673,1.138097 c -0.0823,-0.0293 -0.1896,-0.04412 -0.32195,-0.04412 -0.28524,0 -0.5043,0.113322 -0.65719,0.339628 -0.15306,0.223612 -0.22951,0.549937 -0.22951,0.979313 v 2.52759 h -1.17329 v -4.914076 h 0.96601 l 0.13235,0.767656 h 0.0397 c 0.12932,-0.308814 0.27042,-0.529395 0.42348,-0.661744 0.15289,-0.132348 0.33071,-0.198523 0.53377,-0.198523 z"
     fill="#243f52"
     id="path50"
     style="stroke-width:0.168383" />
  <path
     d="m 119.99194,57.653851 -0.23389,-0.670499 h -0.0264 c -0.17344,0.288271 -0.35293,0.486794 -0.53815,0.595569 -0.18522,0.108775 -0.41911,0.163163 -0.70132,0.163163 -0.36168,0 -0.64709,-0.135211 -0.85588,-0.405802 -0.20577,-0.270591 -0.30865,-0.646926 -0.30865,-1.129174 0,-0.517607 0.1411,-0.901351 0.42348,-1.151399 0.28524,-0.252911 0.71007,-0.3925 1.27483,-0.419105 l 0.65282,-0.02644 v -0.35293 c 0,-0.458674 -0.19853,-0.688011 -0.59557,-0.688011 -0.294,0 -0.63228,0.114669 -1.01451,0.344006 l -0.4058,-0.811604 c 0.48814,-0.308814 1.01888,-0.46322 1.59239,-0.46322 0.52047,0 0.916,0.150028 1.1866,0.449918 0.27345,0.297027 0.41018,0.718993 0.41018,1.266068 v 3.299456 z m -1.01905,-0.829284 c 0.21468,0 0.38526,-0.09547 0.51171,-0.286755 0.12949,-0.193977 0.19415,-0.451265 0.19415,-0.771866 V 55.35122 l -0.36169,0.01768 c -0.26773,0.01465 -0.46474,0.09126 -0.59119,0.229337 -0.12343,0.138242 -0.18522,0.344174 -0.18522,0.617627 0,0.405802 0.14413,0.608703 0.43224,0.608703 z"
     fill="#243f52"
     id="path52"
     style="stroke-width:0.168383" />
  <path
     d="m 124.14661,57.742084 c -0.5853,0 -1.03084,-0.213172 -1.33662,-0.639517 -0.30595,-0.426513 -0.45884,-1.052896 -0.45884,-1.879149 0,-0.864645 0.14413,-1.510224 0.4324,-1.936568 0.29114,-0.426345 0.73954,-0.639686 1.34538,-0.639686 0.18236,0 0.37347,0.02661 0.57334,0.07948 0.20004,0.05287 0.37937,0.129318 0.53832,0.229337 l -0.33525,0.913139 c -0.24415,-0.144136 -0.46036,-0.216204 -0.64844,-0.216204 -0.25005,0 -0.43089,0.131002 -0.5427,0.392669 -0.10877,0.258804 -0.16316,0.648441 -0.16316,1.168911 0,0.508852 0.0544,0.889565 0.16316,1.142476 0.10878,0.250048 0.28676,0.374988 0.53377,0.374988 0.29417,0 0.60147,-0.102882 0.9219,-0.308814 v 1.032185 c -0.30865,0.191283 -0.64979,0.286756 -1.02326,0.286756 z"
     fill="#243f52"
     id="path54"
     style="stroke-width:0.168383" />
  <path
     d="m 129.04671,57.653851 v -2.929014 c 0,-0.720509 -0.18084,-1.080679 -0.5427,-1.080679 -0.27042,0 -0.46019,0.14262 -0.56896,0.42786 -0.10878,0.282377 -0.16316,0.689695 -0.16316,1.221952 v 2.359881 h -1.17346 v -6.863778 h 1.17346 v 1.526388 c 0,0.197008 -0.0177,0.548422 -0.053,1.054243 h 0.0618 c 0.23523,-0.482416 0.59692,-0.72354 1.08523,-0.72354 0.44991,0 0.78954,0.15306 1.01888,0.458843 0.22934,0.30292 0.344,0.749807 0.344,1.340999 v 3.206845 z"
     fill="#243f52"
     id="path56"
     style="stroke-width:0.168383" />
  <path
     d="m 133.60701,56.749637 c 0.16485,0 0.34266,-0.04125 0.53378,-0.123593 v 0.917517 c -0.19112,0.132349 -0.47787,0.198523 -0.8601,0.198523 -0.42651,0 -0.74257,-0.126455 -0.9485,-0.379366 -0.20576,-0.255773 -0.30865,-0.63817 -0.30865,-1.146854 v -2.54527 h -0.47652 v -0.524849 l 0.61325,-0.423482 0.29989,-1.041109 h 0.74998 v 1.058621 h 0.89108 v 0.930819 h -0.89108 v 2.585009 c 0,0.329356 0.13235,0.494034 0.39687,0.494034 z"
     fill="#243f52"
     id="path58"
     style="stroke-width:0.168383" />
  <path
     d="M 0,0 H 5.3109543 V 41.502091 H 0 Z"
     fill="#115062"
     id="path60"
     style="stroke-width:0.168383" />
  <path
     d="m 50.182886,0 v 41.502091 h -5.80381 L 23.956629,8.9245787 V 41.502091 H 18.645674 V 0 h 5.748918 L 44.871931,32.577479 V 0 Z"
     fill="#115062"
     id="path62"
     style="stroke-width:0.168383" />
  <path
     d="M 96.669437,0 81.065089,41.994779 H 75.15183 L 59.492757,0 h 5.584745 L 78.10846,35.369767 91.139417,0 Z"
     fill="#115062"
     id="path64"
     style="stroke-width:0.168383" />
  <path
     d="m 114.1952,22.776772 -2.84718,3.011522 v 15.713797 h -5.31079 V 0 h 5.31079 V 18.560978 L 128.97818,0 h 6.73463 l -17.90395,18.944217 18.17774,22.557874 h -6.84408 z"
     fill="#115062"
     id="path66"
     style="stroke-width:0.168383" />
</svg>
